<?xml version="1.0" encoding="utf-8"?>
<!-- Generator: Adobe Illustrator 23.0.3, SVG Export Plug-In . SVG Version: 6.00 Build 0)  -->
<svg version="1.1" id="Layer_1" xmlns="http://www.w3.org/2000/svg" xmlns:xlink="http://www.w3.org/1999/xlink" x="0px" y="0px"
	 viewBox="0 0 455 426.1" style="enable-background:new 0 0 455 426.1;" xml:space="preserve">
<style type="text/css">
	.st0{fill:#F7B000;}
</style>
<title>moon</title>
<path class="st0" d="M358.6,96.1c-11.9-10.4-24.9-19.6-38.9-27.2c-2.7-1.5-6.2-1.1-8.5,1c-2.2,2-2.6,5.3-0.9,7.8
	c48.9,70.1,38.5,160.7-25.4,220.2c-37.3,34.7-87.2,53.8-140.6,53.8c-35.3,0.1-70.1-8.6-100.9-25.3c-2.7-1.5-6.2-1.1-8.5,1
	c-2.2,2-2.6,5.3-0.9,7.8c8.9,12.7,19.2,24.3,30.9,34.6c39.5,35,91.7,54.3,146.9,54.3c57.2,0,110.7-20.5,150.5-57.7
	c39.3-36.6,60.5-84.8,59.8-135.9C421.4,179.5,398.8,131.7,358.6,96.1z"/>
</svg>
